<svg width="600" height="450" viewBox="0 0 600 450" fill="none" xmlns="http://www.w3.org/2000/svg">
  <rect width="600" height="450" rx="40" fill="#EFF6FF"/>
  <path d="M125 310C125 250 175 220 215 220H385C425 220 475 250 475 310V360C475 380 455 400 435 400H165C145 400 125 380 125 360V310Z" fill="#DBEAFE"/>
  <path d="M225 190C225 165 245 145 270 145H330C355 145 375 165 375 190V245H225V190Z" fill="#BFDBFE"/>
  <path d="M245 250H355V260C355 280 335 295 305 295H295C265 295 245 280 245 260V250Z" fill="#93C5FD"/>
  <circle cx="300" cy="185" r="26" fill="#DBEAFE"/>
  <path d="M300 212C320 212 339 221 355 235" stroke="#2563EB" stroke-width="8" stroke-linecap="round"/>
  <path d="M300 158C318 158 334 168 345 183" stroke="#1D4ED8" stroke-width="7" stroke-linecap="round"/>
  <path d="M133 90C133 73 146 60 163 60H437C454 60 467 73 467 90V135H133V90Z" fill="#BFDBFE"/>
  <path d="M148 120H452" stroke="#2563EB" stroke-width="6" stroke-linecap="round"/>
  <rect x="190" y="120" width="220" height="30" rx="15" fill="#93C5FD"/>
  <path d="M260 120L260 90" stroke="#1D4ED8" stroke-width="6" stroke-linecap="round"/>
  <path d="M340 120L340 90" stroke="#1D4ED8" stroke-width="6" stroke-linecap="round"/>
  <path d="M240 320H360" stroke="#2563EB" stroke-width="6" stroke-linecap="round"/>
  <path d="M250 330H350" stroke="#1D4ED8" stroke-width="6" stroke-linecap="round"/>
  <path d="M255 340H345" stroke="#93C5FD" stroke-width="6" stroke-linecap="round"/>
  <text x="50%" y="70%" text-anchor="middle" fill="#1E3A8A" font-family="Inter, sans-serif" font-size="28" font-weight="700">Reset your password</text>
</svg>